<?xml version="1.0" standalone="no"?>
<!DOCTYPE svg PUBLIC "-//W3C//DTD SVG 20010904//EN"
 "http://www.w3.org/TR/2001/REC-SVG-20010904/DTD/svg10.dtd">
<svg version="1.0" xmlns="http://www.w3.org/2000/svg"
 width="178.000000pt" height="178.000000pt" viewBox="0 0 178.000000 178.000000"
 preserveAspectRatio="xMidYMid meet">
<metadata>
Created by potrace 1.11, written by Peter Selinger 2001-2013
</metadata>
<g transform="translate(0.000000,178.000000) scale(0.100000,-0.100000)"
fill="#000000" stroke="none">
<path d="M458 1773 c237 -2 627 -2 865 0 237 1 43 2 -433 2 -476 0 -670 -1
-432 -2z"/>
<path d="M705 1711 c-263 -65 -480 -284 -539 -544 -23 -97 -21 -256 4 -351 65
-255 272 -463 530 -532 89 -24 272 -25 360 -1 383 102 621 480 542 860 -35
168 -125 316 -257 426 -68 57 -215 128 -300 146 -94 20 -252 18 -340 -4z m344
-21 c210 -51 405 -215 490 -413 76 -176 68 -424 -17 -594 -96 -190 -278 -334
-477 -378 -114 -26 -294 -17 -398 20 -224 78 -402 277 -458 511 -41 171 -11
372 78 522 161 271 477 405 782 332z"/>
<path d="M715 1674 c-33 -8 -98 -33 -145 -56 -69 -34 -103 -60 -176 -133 -75
-74 -99 -106 -132 -175 -53 -109 -72 -191 -72 -311 0 -269 147 -506 385 -623
104 -52 184 -70 305 -70 126 0 202 18 320 76 68 33 102 58 170 127 95 95 143
175 181 301 30 97 32 262 5 360 -68 249 -258 438 -504 501 -90 23 -248 24
-337 3z m157 -411 l-2 -368 -68 2 c-55 2 -74 8 -106 30 -62 44 -76 81 -76 200
l0 103 88 0 c93 0 104 3 95 26 -4 11 -27 14 -94 14 -88 0 -89 0 -89 25 0 25 1
25 88 25 93 0 109 5 91 27 -8 9 -37 13 -95 13 -71 0 -84 3 -84 16 0 12 -5 11
-19 -7 -16 -20 -23 -22 -38 -13 -23 14 -23 53 -1 68 13 8 21 7 32 -4 12 -12
35 -14 111 -10 124 7 129 24 8 28 -92 3 -93 3 -93 28 0 90 87 163 195 164 l60
0 -3 -367z m186 346 c49 -24 87 -75 97 -131 l7 -37 -93 -3 c-61 -2 -94 -7 -96
-15 -3 -9 21 -13 89 -15 88 -3 93 -4 96 -25 3 -22 1 -23 -80 -23 -85 0 -116
-9 -104 -29 5 -7 42 -11 97 -11 88 0 89 0 89 -25 0 -24 -2 -24 -92 -27 -75 -2
-93 -6 -93 -18 0 -12 18 -16 93 -18 l92 -3 0 -82 c0 -98 -12 -146 -47 -187
-36 -43 -73 -60 -148 -67 l-65 -6 0 372 0 371 57 0 c37 0 72 -7 101 -21z m172
-194 c26 -31 -13 -82 -44 -56 -19 16 -21 57 -3 64 22 9 34 7 47 -8z m-630
-236 c0 -152 10 -203 52 -253 46 -56 96 -77 202 -83 136 -8 200 8 257 66 60
59 69 93 69 264 0 135 1 138 21 135 20 -3 21 -8 20 -157 -2 -172 -8 -196 -66
-259 -60 -67 -122 -85 -280 -80 -109 3 -137 7 -171 25 -51 27 -108 90 -122
134 -11 36 -23 325 -14 334 3 3 11 5 19 5 10 0 13 -28 13 -131z m641 -399 c22
-82 23 -131 4 -200 -8 -30 -18 -70 -22 -88 -3 -19 -11 -36 -17 -38 -12 -5
-123 34 -180 62 -17 9 -48 32 -68 52 -29 27 -35 39 -27 49 11 13 9 53 -5 84
-9 19 26 64 65 84 35 19 198 65 219 62 9 -1 21 -27 31 -67z m-545 29 c77 -26
100 -38 124 -68 20 -23 26 -39 20 -45 -14 -14 -13 -69 1 -83 36 -36 -121 -136
-246 -157 l-40 -7 -18 84 c-22 107 -21 119 5 222 17 69 25 85 40 85 11 0 62
-14 114 -31z m218 -125 c19 -18 20 -28 6 -55 -19 -35 -80 -18 -80 22 0 21 26
49 45 49 7 0 21 -7 29 -16z"/>
<path d="M991 756 c-7 -8 -11 -25 -9 -38 2 -18 9 -23 32 -23 36 0 56 27 40 53
-14 22 -48 27 -63 8z"/>
<path d="M1152 598 c-17 -17 -15 -53 3 -68 24 -20 65 3 65 34 0 37 -44 58 -68
34z"/>
<path d="M652 678 c-7 -7 -12 -22 -12 -35 0 -27 42 -42 65 -23 28 23 11 70
-25 70 -9 0 -21 -5 -28 -12z"/>
<path d="M100 623 c8 -3 21 -10 28 -16 9 -7 11 -6 6 7 -3 9 -16 16 -28 15 -14
0 -16 -2 -6 -6z"/>
<path d="M1646 615 c-3 -8 -1 -15 4 -15 6 0 10 4 10 9 0 5 8 12 18 14 13 4 12
5 -4 6 -12 0 -24 -6 -28 -14z"/>
<path d="M169 535 c17 -34 31 -51 31 -39 0 7 -9 22 -21 35 -16 19 -18 20 -10
4z"/>
<path d="M1594 526 c-9 -15 -14 -29 -12 -32 3 -2 13 7 22 22 10 14 15 28 13
31 -3 2 -13 -7 -23 -21z"/>
<path d="M92 448 c79 -115 220 -242 328 -298 39 -20 22 -7 -65 51 -92 62 -185
152 -251 245 -25 35 -48 64 -51 64 -2 0 15 -28 39 -62z"/>
<path d="M1690 465 c-17 -25 -29 -45 -26 -45 3 0 19 20 36 45 17 25 29 45 26
45 -3 0 -19 -20 -36 -45z"/>
<path d="M249 426 c14 -14 27 -26 29 -26 10 0 -26 44 -39 48 -8 3 -3 -7 10
-22z"/>
<path d="M1523 438 c-24 -32 -24 -41 0 -19 15 14 27 26 27 28 0 8 -19 2 -27
-9z"/>
<path d="M1585 337 c-38 -40 -86 -86 -105 -102 -20 -17 -29 -26 -20 -20 38 24
122 99 160 145 23 27 40 50 38 50 -1 0 -34 -33 -73 -73z"/>
<path d="M322 358 c2 -6 15 -18 29 -27 l24 -15 -24 27 c-26 29 -35 34 -29 15z"/>
<path d="M1435 350 c-10 -11 -14 -20 -8 -20 5 0 18 9 28 20 10 11 14 20 8 20
-5 0 -18 -9 -28 -20z"/>
<path d="M410 293 c0 -10 40 -36 46 -30 3 2 -7 12 -21 21 -14 9 -25 13 -25 9z"/>
<path d="M1340 280 c-14 -11 -20 -20 -15 -19 13 0 50 28 44 33 -2 3 -15 -4
-29 -14z"/>
<path d="M535 216 c17 -7 32 -11 35 -9 8 7 -24 23 -45 22 -15 0 -13 -3 10 -13z"/>
<path d="M1228 223 c-10 -2 -18 -9 -18 -14 0 -6 7 -6 18 -1 9 5 24 12 32 15
13 5 13 5 0 5 -8 0 -23 -2 -32 -5z"/>
<path d="M1377 171 c-60 -36 -74 -50 -22 -23 39 20 85 52 75 51 -3 0 -26 -13
-53 -28z"/>
<path d="M630 180 c8 -5 24 -9 35 -9 l20 0 -20 9 c-11 5 -27 9 -35 9 -13 1
-13 0 0 -9z"/>
<path d="M1110 180 c-12 -8 -12 -10 5 -10 11 0 27 5 35 10 12 8 12 10 -5 10
-11 0 -27 -5 -35 -10z"/>
<path d="M1008 162 c-16 -2 -28 -8 -28 -13 0 -8 48 -2 59 7 8 7 -4 9 -31 6z"/>
<path d="M740 156 c0 -2 14 -6 30 -8 17 -3 30 -1 30 4 0 4 -13 8 -30 8 -16 0
-30 -2 -30 -4z"/>
<path d="M873 143 c9 -2 25 -2 35 0 9 3 1 5 -18 5 -19 0 -27 -2 -17 -5z"/>
<path d="M500 110 c8 -5 20 -10 25 -10 6 0 3 5 -5 10 -8 5 -19 10 -25 10 -5 0
-3 -5 5 -10z"/>
<path d="M1260 110 c-8 -5 -10 -10 -5 -10 6 0 17 5 25 10 8 5 11 10 5 10 -5 0
-17 -5 -25 -10z"/>
<path d="M550 90 c8 -5 20 -10 25 -10 6 0 3 5 -5 10 -8 5 -19 10 -25 10 -5 0
-3 -5 5 -10z"/>
<path d="M605 70 c11 -5 27 -9 35 -9 9 0 8 4 -5 9 -11 5 -27 9 -35 9 -9 0 -8
-4 5 -9z"/>
<path d="M1120 65 c-25 -7 -36 -13 -25 -13 11 0 38 5 60 13 52 17 24 17 -35 0z"/>
<path d="M668 53 c6 -2 18 -2 25 0 6 3 1 5 -13 5 -14 0 -19 -2 -12 -5z"/>
<path d="M718 43 c6 -2 18 -2 25 0 6 3 1 5 -13 5 -14 0 -19 -2 -12 -5z"/>
<path d="M1038 43 c6 -2 18 -2 25 0 6 3 1 5 -13 5 -14 0 -19 -2 -12 -5z"/>
<path d="M828 33 c34 -2 90 -2 125 0 34 2 6 3 -63 3 -69 0 -97 -1 -62 -3z"/>
</g>
</svg>
